<svg width="93" height="34" viewBox="0 0 93 34" fill="none" xmlns="http://www.w3.org/2000/svg">
<path d="M87.914 7.74465L72.4811 31.2446C71.5567 32.6523 69.9858 33.5 68.3018 33.5H5C2.23858 33.5 0 31.2614 0 28.5V5C0 2.23858 2.23858 0 5 0H83.7346C87.7124 0 90.0975 4.41971 87.914 7.74465Z" fill="#2F3855"/>
<path d="M47 17C47 17.2652 46.9241 17.5196 46.7891 17.7071C46.6541 17.8946 46.471 18 46.28 18H35.72C35.529 18 35.3459 17.8946 35.2109 17.7071C35.0759 17.5196 35 17.2652 35 17C35 16.7348 35.0759 16.4804 35.2109 16.2929C35.3459 16.1054 35.529 16 35.72 16H46.28C46.471 16 46.6541 16.1054 46.7891 16.2929C46.9241 16.4804 47 16.7348 47 17Z" fill="#858CAB"/>
</svg>
