<svg width="22" height="22" viewBox="0 0 22 22" fill="none" xmlns="http://www.w3.org/2000/svg">
<path fill-rule="evenodd" clip-rule="evenodd" d="M8.3519 0.143066C7.0175 0.143066 5.73776 0.673153 4.7942 1.61671C3.85064 2.56027 3.32056 3.84001 3.32056 5.17441C3.32056 6.5088 3.85064 7.78855 4.7942 8.73211C5.73776 9.67566 7.0175 10.2058 8.3519 10.2058C9.68629 10.2058 10.966 9.67566 11.9096 8.73211C12.8532 7.78855 13.3832 6.5088 13.3832 5.17441C13.3832 3.84001 12.8532 2.56027 11.9096 1.61671C10.966 0.673153 9.68629 0.143066 8.3519 0.143066ZM4.9094 5.17441C4.9094 4.2614 5.27209 3.38579 5.91769 2.7402C6.56328 2.0946 7.43889 1.73191 8.3519 1.73191C9.26491 1.73191 10.1405 2.0946 10.7861 2.7402C11.4317 3.38579 11.7944 4.2614 11.7944 5.17441C11.7944 6.08742 11.4317 6.96303 10.7861 7.60862C10.1405 8.25422 9.26491 8.61691 8.3519 8.61691C7.43889 8.61691 6.56328 8.25422 5.91769 7.60862C5.27209 6.96303 4.9094 6.08742 4.9094 5.17441Z" fill="#858CAB"/>
<path d="M14.7073 1.20215C14.4966 1.20215 14.2945 1.28585 14.1455 1.43483C13.9965 1.58381 13.9128 1.78588 13.9128 1.99657C13.9128 2.20726 13.9965 2.40933 14.1455 2.55831C14.2945 2.7073 14.4966 2.79099 14.7073 2.79099C15.3393 2.79099 15.9455 3.04209 16.3925 3.48904C16.8394 3.93599 17.0905 4.54218 17.0905 5.17426C17.0905 5.80634 16.8394 6.41254 16.3925 6.85949C15.9455 7.30643 15.3393 7.55753 14.7073 7.55753C14.4966 7.55753 14.2945 7.64123 14.1455 7.79021C13.9965 7.93919 13.9128 8.14126 13.9128 8.35195C13.9128 8.56264 13.9965 8.76471 14.1455 8.91369C14.2945 9.06267 14.4966 9.14637 14.7073 9.14637C15.7607 9.14637 16.7711 8.72788 17.516 7.98297C18.2609 7.23805 18.6794 6.22773 18.6794 5.17426C18.6794 4.12079 18.2609 3.11047 17.516 2.36555C16.7711 1.62064 15.7607 1.20215 14.7073 1.20215Z" fill="#858CAB"/>
<path fill-rule="evenodd" clip-rule="evenodd" d="M2.71463 13.1397C4.19755 12.2923 6.19208 11.7944 8.35185 11.7944C10.5127 11.7944 12.5062 12.2923 13.9891 13.1397C15.4487 13.9743 16.5609 15.2475 16.5609 16.8258C16.5609 18.404 15.4487 19.6772 13.9891 20.5119C12.5062 21.3593 10.5116 21.8571 8.35185 21.8571C6.19103 21.8571 4.19755 21.3593 2.71463 20.5119C1.25501 19.6772 0.142822 18.404 0.142822 16.8258C0.142822 15.2475 1.25501 13.9743 2.71463 13.1397ZM3.5027 14.5198C2.27929 15.2189 1.73167 16.0631 1.73167 16.8258C1.73167 17.5884 2.27929 18.4326 3.5027 19.1317C4.70387 19.8181 6.41664 20.2683 8.35185 20.2683C10.2871 20.2683 11.9998 19.8181 13.201 19.1317C14.4244 18.4326 14.972 17.5874 14.972 16.8258C14.972 16.0631 14.4244 15.2189 13.201 14.5198C11.9998 13.8335 10.2871 13.3833 8.35185 13.3833C6.41664 13.3833 4.70387 13.8335 3.5027 14.5198Z" fill="#858CAB"/>
<path d="M18.0544 12.8718C17.8485 12.8269 17.6331 12.8655 17.4557 12.9794C17.2784 13.0932 17.1534 13.2728 17.1085 13.4787C17.0635 13.6847 17.1022 13.9 17.2161 14.0774C17.3299 14.2548 17.5095 14.3797 17.7154 14.4246C18.5543 14.6079 19.2248 14.9246 19.6676 15.2868C20.1104 15.6491 20.2682 16.0039 20.2682 16.2963C20.2682 16.5611 20.1411 16.8736 19.7883 17.2009C19.4335 17.5303 18.888 17.8343 18.1857 18.0461C18.0858 18.0762 17.9927 18.1256 17.9119 18.1916C17.8311 18.2576 17.764 18.3389 17.7146 18.4308C17.6652 18.5227 17.6343 18.6235 17.6238 18.7273C17.6134 18.8312 17.6234 18.936 17.6535 19.036C17.6835 19.1359 17.733 19.229 17.799 19.3098C17.865 19.3907 17.9462 19.4577 18.0382 19.5071C18.1301 19.5566 18.2308 19.5874 18.3347 19.5979C18.4385 19.6084 18.5434 19.5983 18.6433 19.5683C19.5151 19.3056 20.2936 18.8999 20.8698 18.365C21.4482 17.8279 21.857 17.1214 21.857 16.2963C21.857 15.3801 21.3549 14.6142 20.6739 14.0571C19.9917 13.4989 19.0734 13.0953 18.0544 12.8718Z" fill="#858CAB"/>
</svg>
