<svg width="21" height="21" viewBox="0 0 21 21" fill="none" xmlns="http://www.w3.org/2000/svg">
<path d="M11.8125 7H10.5V11.375L14.245 13.5975L14.875 12.5387L11.8125 10.7187V7ZM11.375 2.625C9.28642 2.625 7.28338 3.45468 5.80653 4.93153C4.32968 6.40838 3.5 8.41142 3.5 10.5H0.875L4.34 14.0262L7.875 10.5H5.25C5.25 8.87555 5.89531 7.31763 7.04397 6.16897C8.19263 5.02031 9.75055 4.375 11.375 4.375C12.9995 4.375 14.5574 5.02031 15.706 6.16897C16.8547 7.31763 17.5 8.87555 17.5 10.5C17.5 12.1245 16.8547 13.6824 15.706 14.831C14.5574 15.9797 12.9995 16.625 11.375 16.625C9.68625 16.625 8.155 15.9337 7.0525 14.8225L5.81 16.065C6.53754 16.8005 7.40441 17.3837 8.35992 17.7803C9.31544 18.1769 10.3404 18.3791 11.375 18.375C13.4636 18.375 15.4666 17.5453 16.9435 16.0685C18.4203 14.5916 19.25 12.5886 19.25 10.5C19.25 8.41142 18.4203 6.40838 16.9435 4.93153C15.4666 3.45468 13.4636 2.625 11.375 2.625Z" fill="white"/>
</svg>
