<svg width="18" height="22" viewBox="0 0 18 22" fill="none" xmlns="http://www.w3.org/2000/svg">
<path fill-rule="evenodd" clip-rule="evenodd" d="M9 0C7.70424 0 6.46154 0.512083 5.5453 1.4236C4.62906 2.33511 4.11432 3.57139 4.11432 4.86047C4.11432 6.14954 4.62906 7.38582 5.5453 8.29733C6.46154 9.20885 7.70424 9.72093 9 9.72093C10.2958 9.72093 11.5385 9.20885 12.4547 8.29733C13.3709 7.38582 13.8857 6.14954 13.8857 4.86047C13.8857 3.57139 13.3709 2.33511 12.4547 1.4236C11.5385 0.512083 10.2958 0 9 0ZM5.65716 4.86047C5.65716 3.97847 6.00935 3.13259 6.63626 2.50892C7.26316 1.88526 8.11342 1.53488 9 1.53488C9.88657 1.53488 10.7368 1.88526 11.3637 2.50892C11.9906 3.13259 12.3428 3.97847 12.3428 4.86047C12.3428 5.74246 11.9906 6.58834 11.3637 7.21201C10.7368 7.83567 9.88657 8.18605 9 8.18605C8.11342 8.18605 7.26316 7.83567 6.63626 7.21201C6.00935 6.58834 5.65716 5.74246 5.65716 4.86047ZM9 11.2558C6.62093 11.2558 4.42803 11.794 2.80392 12.7027C1.20348 13.5991 5.74987e-05 14.9559 5.74987e-05 16.6279V16.7323C-0.000971066 17.9213 -0.00199972 19.4132 1.31353 20.4794C1.9605 21.0033 2.86667 21.3768 4.09066 21.6224C5.31671 21.87 6.91613 22 9 22C11.0839 22 12.6823 21.87 13.9104 21.6224C15.1344 21.3768 16.0395 21.0033 16.6875 20.4794C18.003 19.4132 18.001 17.9213 17.9999 16.7323V16.6279C17.9999 14.9559 16.7965 13.5991 15.1971 12.7027C13.572 11.794 11.3801 11.2558 9 11.2558ZM1.5429 16.6279C1.5429 15.7571 2.18267 14.8116 3.55992 14.0411C4.91351 13.2839 6.83487 12.7907 9.00103 12.7907C11.1651 12.7907 13.0865 13.2839 14.4401 14.0411C15.8184 14.8116 16.4571 15.7571 16.4571 16.6279C16.4571 17.9663 16.4159 18.7194 15.7124 19.2884C15.3318 19.5974 14.6941 19.8993 13.6039 20.1182C12.5167 20.3372 11.0304 20.4651 9 20.4651C6.96961 20.4651 5.48231 20.3372 4.39614 20.1182C3.30586 19.8993 2.66815 19.5974 2.28759 19.2894C1.58405 18.7194 1.5429 17.9663 1.5429 16.6279Z" fill="#858CAB"/>
</svg>
