<svg width="37" height="15" viewBox="0 0 37 15" fill="none" xmlns="http://www.w3.org/2000/svg">
<path d="M4.93702 0.5C2.05402 0.5 0 2.47756 0 5.18515V5.20363C0 7.73564 1.78691 9.60231 4.33831 9.60231C6.16206 9.60231 7.32263 8.66898 7.8108 7.61551H7.99502C7.99502 7.71716 7.98581 7.81881 7.98581 7.92046C7.88449 10.471 6.99104 12.5409 4.88175 12.5409C3.71197 12.5409 2.89221 11.931 2.5422 10.9977L2.51456 10.9053H0.175006L0.193428 11.0069C0.617127 13.0492 2.44088 14.5 4.88175 14.5C8.22529 14.5 10.2425 11.8386 10.2425 7.34753V7.32904C10.2425 2.52376 7.77396 0.5 4.93702 0.5ZM4.92781 7.77261C3.41723 7.77261 2.32114 6.6637 2.32114 5.12046V5.10198C2.32114 3.61419 3.49091 2.44059 4.95544 2.44059C6.42918 2.44059 7.58053 3.63267 7.58053 5.15743V5.17591C7.58053 6.68218 6.42918 7.77261 4.92781 7.77261Z" fill="white"/>
<path d="M14.4242 5.52706C15.2716 5.52706 15.8887 4.8802 15.8887 4.067C15.8887 3.24455 15.2716 2.60693 14.4242 2.60693C13.586 2.60693 12.9597 3.24455 12.9597 4.067C12.9597 4.8802 13.586 5.52706 14.4242 5.52706ZM14.4242 12.3838C15.2716 12.3838 15.8887 11.7462 15.8887 10.9238C15.8887 10.1013 15.2716 9.4637 14.4242 9.4637C13.586 9.4637 12.9597 10.1013 12.9597 10.9238C12.9597 11.7462 13.586 12.3838 14.4242 12.3838Z" fill="white"/>
<path d="M25.0535 14.1673H27.3286V11.6076H29.1155V9.63927H27.3286V0.832673H23.9666C22.1613 3.58647 20.2731 6.65446 18.5507 9.65776V11.6076H25.0535V14.1673ZM20.7613 9.69472V9.55611C22.0508 7.29208 23.589 4.82475 24.9522 2.7363H25.0904V9.69472H20.7613Z" fill="white"/>
<path d="M34.6236 14.1673H37V0.832673H34.6328L31.1603 3.28152V5.52706L34.467 3.17987H34.6236V14.1673Z" fill="white"/>
</svg>
