<svg width="10" height="10" viewBox="0 0 10 10" fill="none" xmlns="http://www.w3.org/2000/svg">
<path d="M6.08268 7.53338C6.1934 8.11966 6.29561 8.67344 6.40278 9.22586C6.48866 9.67064 6.25018 9.97597 5.77394 9.98951C5.26102 10.0035 4.74763 10.0035 4.23377 9.98951C3.74475 9.97664 3.50343 9.6659 3.59499 9.20691C3.70217 8.67073 3.80792 8.13387 3.91793 7.55505C3.80721 7.59905 3.73836 7.62275 3.67165 7.65254C3.14087 7.89599 2.53821 7.95706 1.96565 7.82544C1.39309 7.69381 0.885783 7.37756 0.529564 6.93019C-0.213548 5.99527 -0.18019 4.70154 0.665128 3.83634C1.45579 3.02802 2.29756 2.26505 3.11804 1.48313C3.55028 1.07152 3.98039 0.657877 4.4176 0.251006C4.76609 -0.0725948 5.21749 -0.0874898 5.5532 0.230695C6.80521 1.41272 8.07212 2.58188 9.28935 3.79573C10.6478 5.14971 9.96078 7.33367 8.05935 7.8096C7.49825 7.94961 6.90357 7.89911 6.37723 7.66675C6.2878 7.63087 6.20334 7.58957 6.08268 7.53338Z" fill="#8EBBFF"/>
</svg>
