<svg width="21" height="20" viewBox="0 0 21 20" fill="none" xmlns="http://www.w3.org/2000/svg">
<path d="M9.75 0C5.531 0.004 3.349 0.08 1.964 1.464C0.58 2.85 0.504 5.031 0.5 9.25H5.414C5.05442 8.80122 4.79619 8.27997 4.657 7.722C4.12 5.57 6.07 3.62 8.222 4.157C8.794 4.3 9.312 4.563 9.75 4.914V0ZM0.5 10.75C0.504 14.968 0.58 17.15 1.964 18.535C3.35 19.92 5.531 19.995 9.75 20V12.123C9.35556 12.9125 8.74899 13.5764 7.99831 14.0404C7.24762 14.5044 6.38251 14.7502 5.5 14.75C5.30109 14.75 5.11032 14.671 4.96967 14.5303C4.82902 14.3897 4.75 14.1989 4.75 14C4.75 13.8011 4.82902 13.6103 4.96967 13.4697C5.11032 13.329 5.30109 13.25 5.5 13.25C6.23162 13.25 6.94185 13.0032 7.51583 12.5495C8.08981 12.0958 8.49399 11.4618 8.663 10.75H0.5ZM11.25 20C15.468 19.995 17.65 19.92 19.035 18.535C20.42 17.151 20.495 14.968 20.5 10.75H12.337C12.506 11.4618 12.9102 12.0958 13.4842 12.5495C14.0581 13.0032 14.7684 13.25 15.5 13.25C15.6989 13.25 15.8897 13.329 16.0303 13.4697C16.171 13.6103 16.25 13.8011 16.25 14C16.25 14.1989 16.171 14.3897 16.0303 14.5303C15.8897 14.671 15.6989 14.75 15.5 14.75C14.6175 14.7502 13.7524 14.5044 13.0017 14.0404C12.251 13.5764 11.6444 12.9125 11.25 12.123V20ZM20.5 9.25C20.495 5.031 20.42 2.849 19.035 1.464C17.651 0.08 15.468 0.004 11.25 0V4.914C11.6985 4.55458 12.2194 4.29635 12.777 4.157C14.93 3.619 16.881 5.569 16.342 7.722C16.2031 8.27988 15.9452 8.80113 15.586 9.25H20.5Z" fill="#F79707"/>
</svg>
