<svg width="9" height="5" viewBox="0 0 9 5" fill="none" xmlns="http://www.w3.org/2000/svg">
<path d="M1.85801 0.613155C2.39829 0.748081 2.87797 1.05974 3.22078 1.49859C3.5636 1.93743 3.74988 2.47828 3.75001 3.03516V4.25016H2.53501C1.97814 4.25002 1.43729 4.06374 0.998442 3.72093C0.559595 3.37811 0.247937 2.89844 0.113012 2.35816C0.0530609 2.11712 0.0564728 1.86469 0.122916 1.62536C0.189359 1.38604 0.316573 1.16797 0.492201 0.992344C0.667828 0.816717 0.885896 0.689502 1.12522 0.623059C1.36454 0.556616 1.61698 0.553204 1.85801 0.613155ZM5.25001 3.03516V4.25016H6.46501C7.61001 4.25016 8.60901 3.47016 8.88701 2.35816C8.94704 2.11702 8.94364 1.86446 8.87716 1.62503C8.81067 1.3856 8.68336 1.16745 8.5076 0.991787C8.33184 0.816128 8.11361 0.68894 7.87414 0.622592C7.63467 0.556243 7.38211 0.552992 7.14101 0.613155C6.60092 0.748271 6.12147 1.06001 5.77885 1.49884C5.43623 1.93767 5.25009 2.47842 5.25001 3.03516Z" fill="#F79707"/>
</svg>
