<svg width="20" height="20" viewBox="0 0 20 20" fill="none" xmlns="http://www.w3.org/2000/svg">
<path fill-rule="evenodd" clip-rule="evenodd" d="M7.59194 1.20028C7.43466 1.3426 7.26939 1.47582 7.09693 1.59929C6.79892 1.7993 6.46391 1.9373 6.1119 2.0073C5.9589 2.0373 5.79889 2.0503 5.47989 2.0753C4.67887 2.13931 4.27786 2.17131 3.94385 2.28931C3.56194 2.42415 3.21506 2.64279 2.92867 2.92918C2.64228 3.21556 2.42365 3.56244 2.28881 3.94435C2.1708 4.27836 2.1388 4.67937 2.0748 5.48039C2.06389 5.69216 2.04119 5.90316 2.0068 6.11241C1.9368 6.46441 1.79879 6.79942 1.59879 7.09743C1.51179 7.22743 1.40779 7.34944 1.19978 7.59244C0.678767 8.20446 0.41776 8.51046 0.264757 8.83047C-0.0882522 9.57049 -0.0882522 10.4305 0.264757 11.1705C0.41776 11.4905 0.678767 11.7965 1.19978 12.4086C1.40779 12.6516 1.51179 12.7736 1.59879 12.9036C1.79879 13.2016 1.9368 13.5366 2.0068 13.8886C2.0368 14.0416 2.0498 14.2016 2.0748 14.5206C2.1388 15.3216 2.1708 15.7226 2.28881 16.0567C2.42365 16.4386 2.64228 16.7854 2.92867 17.0718C3.21506 17.3582 3.56194 17.5769 3.94385 17.7117C4.27786 17.8297 4.67887 17.8617 5.47989 17.9257C5.79889 17.9507 5.9589 17.9637 6.1119 17.9937C6.46391 18.0637 6.79892 18.2027 7.09693 18.4017C7.22693 18.4887 7.34893 18.5927 7.59194 18.8007C8.20395 19.3217 8.50996 19.5827 8.82997 19.7357C9.56999 20.0888 10.43 20.0888 11.17 19.7357C11.49 19.5827 11.796 19.3217 12.4081 18.8007C12.6511 18.5927 12.7731 18.4887 12.9031 18.4017C13.2011 18.2017 13.5361 18.0637 13.8881 17.9937C14.0411 17.9637 14.2011 17.9507 14.5201 17.9257C15.3211 17.8617 15.7221 17.8297 16.0562 17.7117C16.4381 17.5769 16.7849 17.3582 17.0713 17.0718C17.3577 16.7854 17.5764 16.4386 17.7112 16.0567C17.8292 15.7226 17.8612 15.3216 17.9252 14.5206C17.9502 14.2016 17.9632 14.0416 17.9932 13.8886C18.0632 13.5366 18.2022 13.2016 18.4012 12.9036C18.4882 12.7736 18.5922 12.6516 18.8002 12.4086C19.3212 11.7965 19.5822 11.4905 19.7352 11.1705C20.0883 10.4305 20.0883 9.57049 19.7352 8.83047C19.5822 8.51046 19.3212 8.20446 18.8002 7.59244C18.6579 7.43516 18.5247 7.26989 18.4012 7.09743C18.2014 6.79931 18.0627 6.4645 17.9932 6.11241C17.9588 5.90316 17.9361 5.69216 17.9252 5.48039C17.8612 4.67937 17.8292 4.27836 17.7112 3.94435C17.5764 3.56244 17.3577 3.21556 17.0713 2.92918C16.7849 2.64279 16.4381 2.42415 16.0562 2.28931C15.7221 2.17131 15.3211 2.13931 14.5201 2.0753C14.3083 2.0644 14.0973 2.04169 13.8881 2.0073C13.536 1.93779 13.2012 1.79911 12.9031 1.59929C12.7308 1.47555 12.5656 1.34234 12.4081 1.20028C11.796 0.679269 11.49 0.418263 11.17 0.265259C10.8047 0.0906354 10.4049 0 10 0C9.59508 0 9.1953 0.0906354 8.82997 0.265259C8.50996 0.418263 8.20395 0.679269 7.59194 1.20028ZM14.3731 7.86345C14.5144 7.70875 14.5907 7.50551 14.586 7.29603C14.5812 7.08654 14.4959 6.88695 14.3478 6.73878C14.1996 6.59061 14 6.50529 13.7905 6.50056C13.581 6.49584 13.3778 6.57208 13.2231 6.71342L8.37296 11.5635L6.77692 9.9685C6.62223 9.82716 6.41899 9.75092 6.2095 9.75565C6.00001 9.76037 5.80042 9.84569 5.65225 9.99386C5.50408 10.142 5.41876 10.3416 5.41403 10.5511C5.40931 10.7606 5.48555 10.9638 5.62689 11.1185L7.79694 13.2886C7.94956 13.4409 8.15635 13.5264 8.37196 13.5264C8.58756 13.5264 8.79436 13.4409 8.94697 13.2886L14.3741 7.86345H14.3731Z" fill="#01C284"/>
</svg>
