<svg width="37" height="40" viewBox="0 0 37 40" fill="none" xmlns="http://www.w3.org/2000/svg">
<path d="M13.3151 31.7785C6.76752 33.9794 1.51108 30.0777 0.26468 24.9487C-0.950165 19.9453 2.03699 13.792 8.8133 12.8399C7.89822 9.22178 8.45831 5.90579 11.0037 3.1086C11.8937 2.09686 12.9901 1.29487 14.2163 0.758623C15.4426 0.222376 16.7692 -0.0352083 18.1034 0.00386494C21.3167 0.0493261 23.941 1.42119 25.8343 4.07933C27.696 6.69468 28.0957 9.61488 27.2542 12.7143C35.1717 13.3668 37.8907 20.1672 36.7521 24.8978C35.5478 29.9066 30.4044 33.9901 23.7385 31.7972C23.92 32.899 24.0856 33.9179 24.2644 34.9367C24.3696 35.5598 24.5274 36.1776 24.5879 36.8087C24.7483 38.579 23.7753 39.8599 22.0477 39.9268C19.6812 40.0204 17.3146 40.0284 14.9664 39.9268C13.0994 39.8465 12.1134 38.3222 12.4736 36.4049C12.7444 34.9046 13.0074 33.4071 13.3151 31.7785Z" fill="#FFBE18"/>
</svg>
