<svg width="9" height="10" viewBox="0 0 9 10" fill="none" xmlns="http://www.w3.org/2000/svg">
<path d="M3.2388 7.94463C1.64615 8.49484 0.36756 7.51944 0.0643815 6.23716C-0.231121 4.98632 0.495483 3.44799 2.14377 3.20999C1.92119 2.30544 2.05743 1.47645 2.67658 0.777149C2.89305 0.524215 3.15974 0.323718 3.45802 0.189656C3.75631 0.0555941 4.07899 -0.00880206 4.40354 0.000966236C5.18515 0.0123315 5.82349 0.355297 6.28401 1.01983C6.73686 1.67367 6.83408 2.40372 6.62941 3.17857C8.55529 3.34169 9.21665 5.0418 8.9397 6.22446C8.64676 7.47665 7.39567 8.49752 5.77424 7.94931C5.81837 8.22475 5.85867 8.47947 5.90216 8.73418C5.92775 8.88995 5.96612 9.04439 5.98083 9.20216C6.01985 9.64474 5.78319 9.96498 5.36297 9.98169C4.78731 10.0051 4.21166 10.0071 3.64048 9.98169C3.18635 9.96163 2.94649 9.58056 3.03412 9.10121C3.1 8.72616 3.16396 8.35177 3.2388 7.94463Z" fill="#FFBE18"/>
</svg>
