<svg width="22" height="21" viewBox="0 0 22 21" fill="none" xmlns="http://www.w3.org/2000/svg">
<path d="M2.47736 11.4186L1.93708 11.963C2.0808 12.1055 2.27499 12.1854 2.47736 12.1854C2.67974 12.1854 2.87392 12.1055 3.01765 11.963L2.47736 11.4186ZM4.73674 10.2582C4.88139 10.1147 4.96309 9.91952 4.96385 9.71572C4.96462 9.51193 4.8844 9.31617 4.74084 9.17152C4.66975 9.0999 4.58525 9.04298 4.49217 9.00401C4.39909 8.96504 4.29924 8.94479 4.19833 8.94441C3.99453 8.94364 3.79877 9.02386 3.65412 9.16743L4.73572 10.2572L4.73674 10.2582ZM1.29856 9.16743C1.15324 9.02812 0.959014 8.95148 0.757729 8.95403C0.556444 8.95658 0.36422 9.03812 0.222484 9.18106C0.0807478 9.32401 0.000848823 9.51692 6.72422e-06 9.71821C-0.000835375 9.91951 0.0774468 10.1131 0.217982 10.2572L1.29856 9.16743ZM17.7609 5.68012C17.8124 5.76871 17.881 5.84609 17.9628 5.90772C18.0447 5.96935 18.138 6.01398 18.2373 6.03897C18.3367 6.06396 18.44 6.06882 18.5413 6.05324C18.6425 6.03766 18.7396 6.00198 18.8269 5.94828C18.9141 5.89459 18.9897 5.82397 19.0492 5.7406C19.1087 5.65722 19.151 5.56278 19.1734 5.46283C19.1958 5.36288 19.198 5.25945 19.1799 5.15864C19.1617 5.05782 19.1235 4.96167 19.0676 4.87583L17.7609 5.68012ZM11.0718 0.418468C5.90736 0.418468 1.70889 4.57397 1.70889 9.71283H3.24379C3.24379 5.43351 6.74338 1.95337 11.0718 1.95337V0.418468ZM1.70889 9.71283V11.4186H3.24379V9.71283H1.70889ZM3.01867 11.964L4.73674 10.2582L3.65412 9.16743L1.93503 10.8732L3.01663 11.962L3.01867 11.964ZM3.01867 10.8742L1.29856 9.16743L0.216959 10.2572L1.93605 11.962L3.01663 10.8732L3.01867 10.8742ZM19.0676 4.87788C18.2276 3.51294 17.0515 2.38625 15.6518 1.60551C14.2521 0.824772 12.6745 0.41607 11.0718 0.418468V1.95337C12.4125 1.95059 13.7326 2.29186 14.9038 2.94453C16.0749 3.5972 17.059 4.53945 17.7619 5.68115L19.0687 4.87685L19.0676 4.87788ZM19.4984 9.37208L20.0377 8.82668C19.8941 8.68483 19.7003 8.60528 19.4984 8.60528C19.2966 8.60528 19.1028 8.68483 18.9592 8.82668L19.4984 9.37208ZM17.2329 10.5314C17.1612 10.6023 17.1042 10.6866 17.0651 10.7796C17.026 10.8725 17.0056 10.9722 17.005 11.073C17.0038 11.2766 17.0836 11.4724 17.2268 11.6171C17.3699 11.7619 17.5647 11.8439 17.7683 11.8451C17.972 11.8462 18.1677 11.7664 18.3125 11.6233L17.2329 10.5314ZM20.6844 11.6233C20.7557 11.696 20.8407 11.7538 20.9346 11.7934C21.0284 11.8329 21.1292 11.8534 21.231 11.8536C21.3328 11.8538 21.4337 11.8337 21.5277 11.7946C21.6217 11.7554 21.707 11.6979 21.7785 11.6255C21.8501 11.553 21.9065 11.4671 21.9445 11.3726C21.9825 11.2781 22.0014 11.177 21.9999 11.0752C21.9985 10.9734 21.9768 10.8728 21.9361 10.7795C21.8954 10.6861 21.8365 10.6018 21.7629 10.5314L20.6844 11.6233ZM4.15348 15.1085C4.04655 14.9353 3.87517 14.8115 3.67703 14.7646C3.47889 14.7177 3.27023 14.7514 3.09695 14.8583C2.92367 14.9653 2.79996 15.1367 2.75304 15.3348C2.70612 15.5329 2.73984 15.7416 2.84676 15.9149L4.15348 15.1085ZM10.8712 20.3722C16.051 20.3722 20.2649 16.2198 20.2649 11.0779H18.73C18.73 15.3551 15.2201 18.8373 10.8712 18.8373V20.3722ZM20.2649 11.0779V9.37208H18.73V11.0779H20.2649ZM18.9592 8.82668L17.2329 10.5314L18.3125 11.6233L20.0377 9.91748L18.9592 8.82668ZM18.9592 9.91748L20.6844 11.6233L21.7629 10.5314L20.0377 8.82668L18.9592 9.91748ZM2.84574 15.9138C3.69139 17.2803 4.87284 18.4074 6.27751 19.1878C7.68219 19.9682 9.26331 20.376 10.8702 20.3722V18.8373C9.52527 18.8411 8.20177 18.5004 7.02582 17.8476C5.84987 17.1949 4.86168 16.2519 4.15348 15.1085L2.84676 15.9149L2.84574 15.9138Z" fill="white"/>
</svg>
