<svg width="39" height="40" viewBox="0 0 39 40" fill="none" xmlns="http://www.w3.org/2000/svg">
<path d="M23.7225 30.1335C24.1543 32.4786 24.5529 34.6937 24.9708 36.9034C25.3058 38.6826 24.3757 39.9039 22.5184 39.958C20.518 40.014 18.5158 40.014 16.5117 39.958C14.6045 39.9066 13.6634 38.6636 14.0205 36.8276C14.4384 34.6829 14.8509 32.5355 15.2799 30.2202C14.8481 30.3962 14.5796 30.491 14.3194 30.6101C12.2494 31.584 9.89903 31.8283 7.66604 31.3017C5.43305 30.7752 3.45455 29.5102 2.0653 27.7208C-0.832839 23.9811 -0.702739 18.8061 2.594 15.3454C5.6776 12.1121 8.96049 9.0602 12.1603 5.93251C13.8461 4.28607 15.5235 2.63151 17.2286 1.00403C18.5877 -0.290379 20.3482 -0.349959 21.6575 0.922782C26.5403 5.65088 31.4813 10.3275 36.2285 15.1829C41.5265 20.5988 38.847 29.3347 31.4315 31.2384C29.2432 31.7984 26.9239 31.5964 24.8712 30.667C24.5224 30.5235 24.193 30.3583 23.7225 30.1335Z" fill="#8EBBFF"/>
</svg>
