<svg width="24" height="20" viewBox="0 0 24 20" fill="none" xmlns="http://www.w3.org/2000/svg">
<path fill-rule="evenodd" clip-rule="evenodd" d="M9.70493 0.232422H13.1788C15.2305 0.232422 16.8558 0.232422 18.1273 0.403213C19.4355 0.579585 20.4949 0.950189 21.331 1.78517C22.3624 2.81772 22.6917 4.19968 22.8112 5.99354C23.4553 6.27596 23.942 6.8754 23.9944 7.63447C24 7.70256 24 7.77512 24 7.8421V12.1576C24 12.2246 24 12.2972 23.9955 12.3641C23.942 13.1232 23.4553 13.7238 22.8112 14.0073C22.6917 15.8 22.3624 17.182 21.331 18.2146C20.4949 19.0495 19.4355 19.4201 18.1273 19.5965C16.8547 19.7673 15.2305 19.7673 13.1788 19.7673H9.70493C7.65321 19.7673 6.02791 19.7673 4.75647 19.5965C3.44819 19.4201 2.38884 19.0495 1.55274 18.2146C0.717767 17.3785 0.347163 16.3191 0.170791 15.0108C0 13.7383 0 12.1141 0 10.0624V9.93735C0 7.88563 0 6.26033 0.170791 4.98889C0.347163 3.68061 0.717767 2.62126 1.55274 1.78517C2.38884 0.950189 3.44819 0.579585 4.75647 0.403213C6.02902 0.232422 7.65321 0.232422 9.70493 0.232422ZM21.1178 14.1859H18.9544C16.56 14.1859 14.5105 12.3686 14.5105 9.99986C14.5105 7.63112 16.56 5.81382 18.9533 5.81382H21.1167C20.9894 4.31689 20.7025 3.52544 20.1455 2.96954C19.6733 2.49735 19.0259 2.21382 17.9029 2.06312C16.7565 1.90907 15.2439 1.90684 13.1152 1.90684H9.76633C7.63758 1.90684 6.12614 1.90907 4.97749 2.06312C3.85563 2.21382 3.20819 2.49735 2.736 2.96954C2.26381 3.44172 1.98028 4.08917 1.82958 5.21214C1.67553 6.35968 1.6733 7.87112 1.6733 9.99986C1.6733 12.1286 1.67553 13.64 1.82958 14.7887C1.98028 15.9106 2.26381 16.558 2.736 17.0302C3.20819 17.5024 3.85563 17.7859 4.9786 17.9366C6.12614 18.0907 7.63758 18.0929 9.76633 18.0929H13.1152C15.2439 18.0929 16.7565 18.0907 17.904 17.9366C19.0259 17.7859 19.6733 17.5024 20.1455 17.0302C20.7025 16.4743 20.9905 15.684 21.1178 14.1859ZM4.46512 5.53475C4.46512 5.31271 4.55332 5.09976 4.71033 4.94275C4.86734 4.78574 5.08028 4.69754 5.30233 4.69754H9.76744C9.98948 4.69754 10.2024 4.78574 10.3594 4.94275C10.5164 5.09976 10.6047 5.31271 10.6047 5.53475C10.6047 5.75679 10.5164 5.96974 10.3594 6.12674C10.2024 6.28375 9.98948 6.37196 9.76744 6.37196H5.30233C5.08028 6.37196 4.86734 6.28375 4.71033 6.12674C4.55332 5.96974 4.46512 5.75679 4.46512 5.53475ZM21.9617 7.48824H18.9544C17.3648 7.48824 16.1849 8.67037 16.1849 9.99986C16.1849 11.3294 17.3648 12.5115 18.9533 12.5115H21.9874C22.2173 12.497 22.3167 12.3418 22.3245 12.248V7.75168C22.3167 7.65791 22.2173 7.50275 21.9874 7.48935H21.9606L21.9617 7.48824Z" fill="#858CAB"/>
<path d="M19.814 10.0001C19.814 10.2961 19.6964 10.5801 19.487 10.7894C19.2777 10.9987 18.9938 11.1163 18.6977 11.1163C18.4016 11.1163 18.1177 10.9987 17.9084 10.7894C17.699 10.5801 17.5814 10.2961 17.5814 10.0001C17.5814 9.70401 17.699 9.42008 17.9084 9.21074C18.1177 9.0014 18.4016 8.88379 18.6977 8.88379C18.9938 8.88379 19.2777 9.0014 19.487 9.21074C19.6964 9.42008 19.814 9.70401 19.814 10.0001Z" fill="#858CAB"/>
</svg>
